<?xml version="1.0" encoding="UTF-8"?>
<svg width="24px" height="25px" viewBox="0 0 24 25" version="1.1" xmlns="http://www.w3.org/2000/svg" xmlns:xlink="http://www.w3.org/1999/xlink">
    <title>形状结合</title>
    <g id="控件" stroke="none" stroke-width="1" fill="none" fill-rule="evenodd">
        <g id="区域设置-元组件库" transform="translate(-113.000000, -49.000000)" fill="#E8EEFF" fill-rule="nonzero">
            <g id="左边工具-拂过状态备份" transform="translate(94.000000, 43.000000)">
                <g id="标签" transform="translate(19.000000, 6.000000)">
                    <path d="M22.8379379,0 C23.4797271,0 24,0.491926998 24,1.0987497 L24,23.8945743 C23.9962508,24.5011827 23.4760908,24.9915606 22.8345201,24.993324 C22.5891833,24.9949779 22.3496975,24.9225177 22.1509541,24.7865005 L11.9931643,17.8449877 L1.83537452,24.7832689 C1.48467246,25.0305959 1.01629159,25.0693776 0.625462842,24.883449 C0.243359579,24.6945599 0.00277002983,24.3216393 0,23.913964 L0,1.0987497 C0,0.491926998 0.520272923,0 1.1620621,0 L22.8379379,0 Z M15.6663991,11.0906554 L8.33360089,11.0906554 C7.93233597,11.0906554 7.60666196,11.4025361 7.60529245,11.7881226 C7.60529245,12.1746423 7.93136725,12.4879784 8.33360089,12.4879784 L15.6663991,12.4879784 C16.0514548,12.4663343 16.3521775,12.1599623 16.3521775,11.7893169 C16.3521775,11.4186716 16.0514548,11.1122995 15.6663991,11.0906554 Z M15.6663991,6.6001132 L8.33360089,6.6001132 C7.93136725,6.6001132 7.60529245,6.91344931 7.60529245,7.29996899 C7.60666196,7.68555554 7.93233597,7.99743619 8.33360089,7.99743619 L15.6663991,7.99743619 C16.0514548,7.9757921 16.3521775,7.66942004 16.3521775,7.29877469 C16.3521775,6.92812935 16.0514548,6.62175729 15.6663991,6.6001132 Z" id="形状结合"></path>
                </g>
            </g>
        </g>
    </g>
</svg>