<?xml version="1.0" encoding="UTF-8"?>
<svg width="23px" height="16px" viewBox="0 0 23 16" version="1.1" xmlns="http://www.w3.org/2000/svg" xmlns:xlink="http://www.w3.org/1999/xlink">
    <title>1.通用/2.Icon图标/2.设计/switch_line-act备份</title>
    <g id="页面" stroke="none" stroke-width="1" fill="none" fill-rule="evenodd">
        <g id="查看设备信息详情" transform="translate(-1056.000000, -578.000000)" fill="#E8EEFF" fill-rule="nonzero">
            <g id="编组-30" transform="translate(926.748000, 180.748000)">
                <g id="编组-16备份-3" transform="translate(25.000000, 393.252000)">
                    <g id="1.通用/2.Icon图标/2.设计/switch_line-act备份" transform="translate(104.000000, 0.000000)">
                        <path d="M15.75,4.5 C19.8921356,4.5 23.25,7.85786438 23.25,12 C23.25,16.1421356 19.8921356,19.5 15.75,19.5 L8.25,19.5 C4.10786438,19.5 0.75,16.1421356 0.75,12 C0.75,7.85786438 4.10786438,4.5 8.25,4.5 L15.75,4.5 Z M15.75,6.09375 L8.25,6.09375 C4.9880682,6.09375 2.34375,8.7380682 2.34375,12 C2.34375,15.187797 4.86923778,17.7857347 8.0285764,17.9021762 L8.25,17.90625 L15.75,17.90625 C19.0119318,17.90625 21.65625,15.2619318 21.65625,12 C21.65625,8.7380682 19.0119318,6.09375 15.75,6.09375 Z M8.25,7.5 C10.7352814,7.5 12.75,9.51471863 12.75,12 C12.75,14.4852814 10.7352814,16.5 8.25,16.5 C5.76471863,16.5 3.75,14.4852814 3.75,12 C3.75,9.51471863 5.76471863,7.5 8.25,7.5 Z" id="形状"></path>
                    </g>
                </g>
            </g>
        </g>
    </g>
</svg>