<?xml version="1.0" encoding="UTF-8"?>
<svg width="52px" height="63px" viewBox="0 0 52 63" version="1.1" xmlns="http://www.w3.org/2000/svg" xmlns:xlink="http://www.w3.org/1999/xlink">
    <title>摄像头</title>
    <g id="页面" stroke="none" stroke-width="1" fill="none" fill-rule="evenodd">
        <g id="添加设备-编辑" transform="translate(-25.000000, -551.000000)">
            <g id="摄像头" transform="translate(25.000000, 551.000000)">
                <path d="M25.8063554,63 C43.0105924,49.8494531 51.6127108,37.6676464 51.6127108,26.4545797 C51.6127108,9.63497979 42.6259554,0 25.8063554,0 C8.98675546,0 0,9.63497979 0,26.4545797 C0,37.6676464 8.60211847,49.8494531 25.8063554,63 Z" id="椭圆形" fill="#0A1933"></path>
                <g id="1.通用/2.图标/2.设计/DNS_fill备份" transform="translate(10.000000, 14.000000)" fill="#E8EEFF">
                    <path d="M26.3864471,8.00236148 L26.3854067,10.381844 C26.3854067,11.3797572 25.6149605,12.1977231 24.636448,12.2733617 L24.4881809,12.2790698 L19.8138423,12.2784694 C19.8449305,12.4289392 19.8612513,12.5846875 19.8612513,12.744186 C19.8612513,13.9750532 18.889287,14.9825787 17.6592688,15.0644023 L17.4974268,15.0697674 L17.4525893,15.0682413 L15.5238579,17.3421973 C15.5769695,17.5321158 15.6063673,17.7394245 15.6063673,17.9534884 C15.6063673,19.2378715 14.548047,20.2790698 13.2425428,20.2790698 C12.3301937,20.2790698 11.5385665,19.7705604 11.1445095,19.0259111 L11.073,18.8770786 L11.0755413,18.8840183 L3.782,18.8832326 L3.7821191,21.190922 C3.7821191,21.6774047 3.4159164,22.0783561 2.94413452,22.1331529 L2.83350621,22.1395349 L1.89009904,22.1395264 C1.8749098,23.1210718 1.11213286,23.9205113 0.146325727,23.9944227 L0,24 L0,11.9069767 L0.147785191,11.9126662 C1.07178414,11.984091 1.80964905,12.7195942 1.88475948,13.6425554 L1.89,13.7672326 L2.83350621,13.7674419 C3.3199889,13.7674419 3.72094036,14.1336446 3.77573708,14.6054264 L3.7821191,14.7160547 L3.782,17.0232326 L11.0755413,17.0229584 L11.075,17.0230786 L11.1421029,16.8856258 C11.5353372,16.1384932 12.3283326,15.627907 13.2425428,15.627907 C13.6582258,15.627907 14.0488483,15.7334674 14.3882258,15.9188274 L14.3300697,15.8881034 L15.7083843,14.2642382 L15.7198387,14.2771791 C15.3548607,13.8678791 15.1336024,13.3314533 15.1336024,12.744186 C15.1336024,12.5846875 15.1499232,12.4289392 15.1810114,12.2784694 L10.1284608,12.2790698 C9.13054761,12.2790698 8.31258176,11.5086236 8.23694309,10.5301111 L8.23123505,10.381844 L8.23152227,10.0394839 C8.29384136,10.0441407 8.35680975,10.0465116 8.420341,10.0465116 L14.8206775,10.0465116 C15.4376151,10.0465116 16.0429537,9.88155516 16.5719733,9.56927863 L18.0611158,8.69024835 C18.4137956,8.482064 18.8173546,8.37209302 19.2286464,8.37209302 L24.8317005,8.37209302 C25.3784316,8.37209302 25.9105307,8.24274822 26.3864471,8.00236148 Z M13.2425428,17.0232558 C12.7203412,17.0232558 12.2970131,17.4397351 12.2970131,17.9534884 C12.2970131,18.4672416 12.7203412,18.8837209 13.2425428,18.8837209 C13.7647445,18.8837209 14.1880726,18.4672416 14.1880726,17.9534884 C14.1880726,17.4397351 13.7647445,17.0232558 13.2425428,17.0232558 Z M18.315833,12.2780023 L16.6790207,12.2780023 C16.5981815,12.4150681 16.5518971,12.5743094 16.5518971,12.744186 C16.5518971,13.2579393 16.9752252,13.6744186 17.4974268,13.6744186 C18.0196285,13.6744186 18.4429566,13.2579393 18.4429566,12.744186 C18.4429566,12.5743094 18.3966721,12.4150681 18.315833,12.2780023 Z M29.1059998,5.33992226 C29.4665737,5.44474643 29.7385077,5.75783239 29.7829319,6.14031016 L29.7893139,6.25093846 L29.7893139,9.00487549 C29.7893139,9.49135817 29.4231112,9.89230963 28.9513293,9.94710636 L28.840701,9.95348837 L28.654,9.95323256 L28.6546782,10.4094145 C28.6546782,10.6422609 28.4868921,10.8359188 28.2656289,10.8760792 L28.1803717,10.8837209 L26.9527246,10.8837209 L26.9534473,7.64194468 C27.1023761,7.52514892 27.2421062,7.39544274 27.3708031,7.2536342 L29.1059998,5.33992226 Z M31.0512934,0 C31.286998,-4.00790982e-16 31.5142607,0.0877503356 31.6888027,0.246154098 C32.0469171,0.571157153 32.0992416,1.10733534 31.8282469,1.4930401 L31.7537522,1.58612214 L26.9487645,6.88064262 C26.4543042,7.42547852 25.770016,7.75568899 25.0411622,7.80694048 L24.8413881,7.81395349 L19.2202369,7.81395349 C18.784065,7.81395349 18.3547315,7.91419806 17.9650055,8.10573709 L17.7735948,8.20907303 L16.2757291,9.09325255 C15.9001158,9.31497444 15.4794336,9.44689357 15.0464514,9.48005981 L14.829087,9.48837209 L8.42650721,9.48837209 C7.42859402,9.48837209 6.61062817,8.71792592 6.5349895,7.73941341 L6.52928145,7.59114633 L6.52928145,1.89722576 C6.52928145,0.899312567 7.29972763,0.0813467166 8.27824014,0.00570804883 L8.42650721,0 L31.0512934,0 Z M16.4711116,1.11627907 L9.06844435,1.11627907 C8.60606642,1.11627907 8.23123505,1.49111044 8.23123505,1.95348837 C8.23123505,2.4158663 8.60606642,2.79069767 9.06844435,2.79069767 L16.4711116,2.79069767 C16.9334895,2.79069767 17.3083209,2.4158663 17.3083209,1.95348837 C17.3083209,1.49111044 16.9334895,1.11627907 16.4711116,1.11627907 Z M27.8174689,1.11627907 L20.4148016,1.11627907 C19.9524237,1.11627907 19.5775923,1.49111044 19.5775923,1.95348837 C19.5775923,2.4158663 19.9524237,2.79069767 20.4148016,2.79069767 L27.8174689,2.79069767 C28.2798468,2.79069767 28.6546782,2.4158663 28.6546782,1.95348837 C28.6546782,1.49111044 28.2798468,1.11627907 27.8174689,1.11627907 Z" id="形状结合"></path>
                </g>
            </g>
        </g>
    </g>
</svg>