<?xml version="1.0" encoding="UTF-8"?>
<svg width="39px" height="30px" viewBox="0 0 39 30" version="1.1" xmlns="http://www.w3.org/2000/svg" xmlns:xlink="http://www.w3.org/1999/xlink">
    <title>1.通用/2.图标/2.设计/DNS_fill</title>
    <g id="控件" stroke="none" stroke-width="1" fill="none" fill-rule="evenodd">
        <g id="区域设置-元组件库" transform="translate(-28.000000, -50.000000)" fill="#E8EEFF">
            <g id="左边工具-拂过状态" transform="translate(16.000000, 43.000000)">
                <g id="1.通用/2.图标/2.设计/DNS_fill" transform="translate(12.666667, 7.833333)">
                    <path d="M30.8954408,9.44730484 L30.894365,12.2739018 C30.894365,13.4478404 29.9840765,14.4091697 28.8308449,14.4905444 L28.6721428,14.496124 L23.1998209,14.4955329 C23.2362061,14.6731344 23.2553075,14.8569643 23.2553075,15.0452196 C23.2553075,16.5053466 22.1062236,17.6992526 20.6561381,17.7856871 L20.487533,17.7906977 L20.4333294,17.788684 L18.1770624,20.4747365 L18.1632089,20.4258696 C18.2348829,20.6699427 18.2733135,20.9280647 18.2733135,21.1950904 C18.2733135,22.7113761 17.0341386,23.9405685 15.505539,23.9405685 C14.373243,23.9405685 13.3997534,23.2661145 12.9710888,22.3001153 L12.9680361,22.2932103 L4.428,22.2924134 L4.42843915,25.0258398 C4.42843915,25.5985795 3.995095,26.0701063 3.43839583,26.1304311 L3.31732804,26.1369509 L2.21315207,26.1369396 C2.20477406,27.2989702 1.30084792,28.2475407 0.157354269,28.3278284 L0,28.3333333 L0,14.0568475 L0.15813052,14.0624071 C1.25497833,14.1398032 2.13126394,15.0160888 2.20866006,16.1129366 L2.213,16.2524134 L3.31732804,16.25323 C3.89006778,16.25323 4.36159457,16.6865741 4.4219193,17.2432733 L4.42843915,17.3643411 L4.428,20.0964134 L12.9680361,20.0969706 C13.3997534,19.1240664 14.373243,18.4496124 15.505539,18.4496124 C15.9584574,18.4496124 16.3859668,18.557525 16.7633619,18.7488442 L16.7786068,18.7566319 L18.3920419,16.8388968 L18.3707044,16.8140962 C17.9645339,16.3363193 17.7197586,15.7191244 17.7197586,15.0452196 C17.7197586,14.8569643 17.73886,14.6731344 17.7752451,14.4955329 L11.8600794,14.496124 C10.6861408,14.496124 9.72481143,13.5858355 9.64343674,12.4326038 L9.63785713,12.2739018 L9.63699444,11.8520779 C9.71035445,11.8576354 9.78448362,11.8604651 9.85927909,11.8604651 L17.3533585,11.8604651 C18.0757235,11.8604651 18.7845074,11.6657248 19.4039303,11.2970651 L21.1475499,10.259321 C21.5604985,10.0135478 22.0330211,9.88372093 22.5145978,9.88372093 L29.0751485,9.88372093 C29.715255,9.88372093 30.3382321,9.73104822 30.8954408,9.44730484 Z M15.505539,20.0968992 C14.8940991,20.0968992 14.3984292,20.5885762 14.3984292,21.1950904 C14.3984292,21.8016047 14.8940991,22.2932817 15.505539,22.2932817 C16.1169789,22.2932817 16.6126488,21.8016047 16.6126488,21.1950904 C16.6126488,20.5885762 16.1169789,20.0968992 15.505539,20.0968992 Z M21.4463316,14.4957819 L19.5287345,14.4957819 C19.4344125,14.6573885 19.3804233,14.8450499 19.3804233,15.0452196 C19.3804233,15.6517339 19.8760932,16.1434109 20.487533,16.1434109 C21.0989729,16.1434109 21.5946428,15.6517339 21.5946428,15.0452196 C21.5946428,14.8450499 21.5406536,14.6573885 21.4463316,14.4957819 Z M34.0806555,6.30403614 C34.5051385,6.42790153 34.8245171,6.79825091 34.8734404,7.24973324 L34.8799603,7.37080103 L34.8799603,10.6395349 C34.8799603,11.2122746 34.4466161,11.6838014 33.889917,11.7441261 L33.7688492,11.750646 L33.551,11.7504134 L33.5514285,12.2932817 C33.5514285,12.569424 33.3499567,12.7985101 33.085987,12.8415659 L32.995873,12.8488372 L31.5586309,12.8488372 L31.558611,9.02242487 C31.7333144,8.88436328 31.897215,8.73100814 32.0481541,8.56331816 L34.0806555,6.30403614 Z M36.3705078,0 C36.6450216,-1.50388488e-15 36.9098178,0.101620931 37.1138513,0.285273145 C37.5373706,0.666486332 37.5994682,1.29948296 37.2774793,1.75314344 L37.1963458,1.85445461 L31.555324,8.12150336 C30.9718128,8.76977122 30.1596449,9.16132924 29.2949706,9.21773303 L29.0778101,9.2248062 L22.5115345,9.2248062 C21.9864325,9.2248062 21.4698521,9.34884586 21.0034384,9.58547 L20.8067396,9.69373987 L19.0612167,10.7326167 C18.6099861,11.0011741 18.1026397,11.1587834 17.5808224,11.1939895 L17.3564218,11.2015504 L9.86728174,11.2015504 C8.69334314,11.2015504 7.73201381,10.2912619 7.65063913,9.1380302 L7.64505952,8.97932817 L7.64505952,2.22222222 C7.64505952,1.04828362 8.55534803,0.0869542995 9.7085797,0.00557961088 L9.86728174,0 L36.3705078,0 Z M19.277739,1.31782946 L10.6262292,1.31782946 C10.0803664,1.31782946 9.63785713,1.76033872 9.63785713,2.30620155 C9.63785713,2.85206438 10.0803664,3.29457364 10.6262292,3.29457364 L19.277739,3.29457364 C19.8236018,3.29457364 20.2661111,2.85206438 20.2661111,2.30620155 C20.2661111,1.76033872 19.8236018,1.31782946 19.277739,1.31782946 Z M32.5630564,1.31782946 L23.9115467,1.31782946 C23.3656838,1.31782946 22.9231746,1.76033872 22.9231746,2.30620155 C22.9231746,2.85206438 23.3656838,3.29457364 23.9115467,3.29457364 L32.5630564,3.29457364 C33.1089193,3.29457364 33.5514285,2.85206438 33.5514285,2.30620155 C33.5514285,1.76033872 33.1089193,1.31782946 32.5630564,1.31782946 Z" id="形状结合"></path>
                </g>
            </g>
        </g>
    </g>
</svg>