<?xml version="1.0" encoding="UTF-8"?>
<svg width="52px" height="63px" viewBox="0 0 52 63" version="1.1" xmlns="http://www.w3.org/2000/svg" xmlns:xlink="http://www.w3.org/1999/xlink">
    <title>编组 6</title>
    <g id="页面" stroke="none" stroke-width="1" fill="none" fill-rule="evenodd">
        <g id="编辑区域信息-编辑" transform="translate(-134.000000, -544.000000)">
            <g id="编组-6" transform="translate(134.000000, 544.000000)">
                <g id="编组-4" fill="#0A1933">
                    <path d="M25.8063554,63 C43.0105924,49.8494531 51.6127108,37.6676464 51.6127108,26.4545797 C51.6127108,9.63497979 42.6259554,0 25.8063554,0 C8.98675546,0 0,9.63497979 0,26.4545797 C0,37.6676464 8.60211847,49.8494531 25.8063554,63 Z" id="椭圆形"></path>
                </g>
                <path d="M36.8379379,12 C37.4797271,12 38,12.491927 38,13.0987497 L38,35.8945743 C37.9962508,36.5011827 37.4760908,36.9915606 36.8345201,36.993324 C36.5891833,36.9949779 36.3496975,36.9225177 36.1509541,36.7865005 L25.9931643,29.8449877 L15.8353745,36.7832689 C15.4846725,37.0305959 15.0162916,37.0693776 14.6254628,36.883449 C14.2433596,36.6945599 14.00277,36.3216393 14,35.913964 L14,13.0987497 C14,12.491927 14.5202729,12 15.1620621,12 L36.8379379,12 Z M29.6663991,23.0906554 L22.3336009,23.0906554 C21.932336,23.0906554 21.606662,23.4025361 21.6052925,23.7881226 C21.6052925,24.1746423 21.9313672,24.4879784 22.3336009,24.4879784 L29.6663991,24.4879784 C30.0514548,24.4663343 30.3521775,24.1599623 30.3521775,23.7893169 C30.3521775,23.4186716 30.0514548,23.1122995 29.6663991,23.0906554 Z M29.6663991,18.6001132 L22.3336009,18.6001132 C21.9313672,18.6001132 21.6052925,18.9134493 21.6052925,19.299969 C21.606662,19.6855555 21.932336,19.9974362 22.3336009,19.9974362 L29.6663991,19.9974362 C30.0514548,19.9757921 30.3521775,19.66942 30.3521775,19.2987747 C30.3521775,18.9281293 30.0514548,18.6217573 29.6663991,18.6001132 Z" id="形状结合" fill="#E8EEFF" fill-rule="nonzero"></path>
            </g>
        </g>
    </g>
</svg>