<?xml version="1.0" encoding="UTF-8"?>
<svg width="22px" height="22px" viewBox="0 0 22 22" version="1.1" xmlns="http://www.w3.org/2000/svg" xmlns:xlink="http://www.w3.org/1999/xlink">
    <title>形状结合</title>
    <g id="控件" stroke="none" stroke-width="1" fill="none" fill-rule="evenodd">
        <g id="1.通用/1.按钮/悬停" transform="translate(-117.000000, 11.000000)" fill="#FF3A3A">
            <g id="1.通用/2.图标/2.设计/close_fill" transform="translate(117.500000, -10.500000)">
                <path d="M10.5,0 C16.2989899,0 21,4.70101013 21,10.5 C21,16.2989899 16.2989899,21 10.5,21 C4.70101013,21 0,16.2989899 0,10.5 C0,4.70101013 4.70101013,0 10.5,0 Z M7.12693045,5.25 L5.1684573,5.25 C5.13297417,5.25 5.09863991,5.26257881 5.07155481,5.2855015 C5.00831903,5.33901928 5.00044104,5.43366673 5.05395881,5.4969025 L5.05395881,5.4969025 L9.28818607,10.5 L5.05395881,15.5030975 C5.03103611,15.5301826 5.0184573,15.5645169 5.0184573,15.6 C5.0184573,15.6828427 5.08561459,15.75 5.1684573,15.75 L5.1684573,15.75 L7.12693045,15.75 C7.21513526,15.75 7.29887062,15.7111832 7.35587174,15.6438708 L7.35587174,15.6438708 L10.5,11.9309816 L13.6426256,15.6438184 C13.6996268,15.7111622 13.7833824,15.75 13.8716112,15.75 L13.8716112,15.75 L15.8315427,15.75 C15.8670258,15.75 15.9013601,15.7374212 15.9284452,15.7144985 C15.991681,15.6609807 15.999559,15.5663333 15.9460412,15.5030975 L15.9460412,15.5030975 L11.7118139,10.5 L15.9460412,5.4969025 C15.9689639,5.46981739 15.9815427,5.43548314 15.9815427,5.4 C15.9815427,5.31715729 15.9143854,5.25 15.8315427,5.25 L15.8315427,5.25 L13.8716112,5.25 C13.7833824,5.25 13.6996268,5.28883783 13.6426256,5.35618159 L13.6426256,5.35618159 L10.5,9.0690184 L7.35587174,5.3561292 C7.29887062,5.2888168 7.21513526,5.25 7.12693045,5.25 L7.12693045,5.25 Z" id="形状结合"></path>
            </g>
        </g>
    </g>
</svg>