<?xml version="1.0" encoding="UTF-8"?>
<svg width="24px" height="24px" viewBox="0 0 24 24" version="1.1" xmlns="http://www.w3.org/2000/svg" xmlns:xlink="http://www.w3.org/1999/xlink">
    <title>5备份 5</title>
    <g id="控件" stroke="none" stroke-width="1" fill="none" fill-rule="evenodd">
        <g id="4.数据展示/1.表格/内容-3通知管理-推送明细" transform="translate(-700.000000, -18.000000)" fill-rule="nonzero">
            <g id="question-circle-fill" transform="translate(700.000000, 18.000000)">
                <rect id="矩形" fill="#000000" opacity="0" x="0" y="0" width="24" height="24"></rect>
                <path d="M12,18.09375 C11.4820312,18.09375 11.0625,17.6742188 11.0625,17.15625 C11.0625,16.6382812 11.4820312,16.21875 12,16.21875 C12.5179688,16.21875 12.9375,16.6382812 12.9375,17.15625 C12.9375,17.6742188 12.5179688,18.09375 12,18.09375 Z M13.4742187,12.9492188 C13.040625,13.115625 12.75,13.5375 12.75,13.9992187 L12.75,14.53125 C12.75,14.634375 12.665625,14.71875 12.5625,14.71875 L11.4375,14.71875 C11.334375,14.71875 11.25,14.634375 11.25,14.53125 L11.25,14.0273438 C11.25,13.4859375 11.4070312,12.9515625 11.7164062,12.50625 C12.01875,12.0703125 12.440625,11.7375 12.9375,11.5476563 C13.734375,11.240625 14.25,10.5726563 14.25,9.84375 C14.25,8.81015625 13.2398437,7.96875 12,7.96875 C10.7601563,7.96875 9.75,8.81015625 9.75,9.84375 L9.75,10.021875 C9.75,10.125 9.665625,10.209375 9.5625,10.209375 L8.4375,10.209375 C8.334375,10.209375 8.25,10.125 8.25,10.021875 L8.25,9.84375 C8.25,8.92265625 8.653125,8.0625 9.384375,7.42265625 C10.0875,6.80625 11.015625,6.46875 12,6.46875 C12.984375,6.46875 13.9125,6.80859375 14.615625,7.42265625 C15.346875,8.0625 15.75,8.92265625 15.75,9.84375 C15.75,11.1984375 14.8570312,12.4171875 13.4742187,12.9492188 Z" id="形状" fill-opacity="0.5" fill="#0A1933"></path>
                <path d="M12,1.5 C6.2015625,1.5 1.5,6.2015625 1.5,12 C1.5,17.7984375 6.2015625,22.5 12,22.5 C17.7984375,22.5 22.5,17.7984375 22.5,12 C22.5,6.2015625 17.7984375,1.5 12,1.5 Z" id="路径" stroke-opacity="0.5" stroke="#0A1933" stroke-width="1.5"></path>
            </g>
        </g>
    </g>
</svg>