<?xml version="1.0" encoding="UTF-8"?>
<svg width="280px" height="97px" viewBox="0 0 280 97" version="1.1" xmlns="http://www.w3.org/2000/svg" xmlns:xlink="http://www.w3.org/1999/xlink">
    <title>编组 2</title>
    <g id="页面-1" stroke="none" stroke-width="1" fill="none" fill-rule="evenodd">
        <g id="一拓LOGO新版已确定转曲_20211111" transform="translate(-1127.000000, -67.000000)">
            <g id="编组-2" transform="translate(1127.460000, 67.348839)">
                <polygon id="Fill-25" fill="#FFFFFE" points="242.51 5.56316115 276.51 5.56316115 276.51 1.36516115 242.51 1.36516115"></polygon>
                <path d="M261.26,48.7661611 L271.33,48.7661611 L271.33,39.1081611 L261.26,39.1081611 L261.26,48.7661611 Z M255.52,26.5131611 L255.52,23.0141611 L275.95,23.0141611 L275.95,26.5131611 L266.72,26.5131611 C265.69,29.5921611 264.15,32.6711611 262.1,35.7501611 L274.83,35.7501611 L274.83,54.2241611 L271.33,54.2241611 L271.33,51.8451611 L261.26,51.8451611 L261.26,54.2241611 L257.76,54.2241611 L257.76,41.4881611 C257.48,41.7671611 257.06,42.1871611 256.5,42.7471611 C255.47,43.8671611 254.63,44.7061611 253.98,45.2671611 C253.51,44.3351611 252.91,43.2161611 252.16,41.9081611 C257.2,37.6171611 260.74,32.4861611 262.8,26.5131611 L255.52,26.5131611 Z M243.06,30.5721611 L243.06,27.2131611 L247.12,27.2131611 L247.12,21.0551611 L250.62,21.0551611 L250.62,27.2131611 L254.54,27.2131611 L254.54,30.5721611 L250.62,30.5721611 L250.62,36.4501611 L254.4,35.1901611 C254.4,36.4971611 254.45,37.7101611 254.54,38.8291611 C253.51,39.1081611 252.21,39.5281611 250.62,40.0881611 L250.62,54.2241611 L244.64,54.2241611 L243.79,50.4451611 L247.12,50.4431611 L247.12,41.3481611 C246.47,41.5361611 245.49,41.8621611 244.18,42.3281611 C243.62,42.5161611 243.2,42.6561611 242.92,42.7471611 L242.5,38.8291611 C242.88,38.7371611 243.53,38.5491611 244.46,38.2691611 C245.68,37.8971611 246.56,37.6171611 247.12,37.4301611 L247.12,30.5721611 L243.06,30.5721611 L243.06,30.5721611 Z" id="Fill-26" fill="#FFFFFE"></path>
                <path d="M41.85,33.7331611 L23.95,33.7331611 C21.15,33.7331611 18.89,31.4681611 18.89,28.6751611 C18.89,25.8811611 21.15,23.6171611 23.95,23.6171611 L41.85,23.6171611 L41.85,33.7331611" id="Fill-27" fill="#52D88F"></path>
                <polyline id="Fill-28" fill="#FFFFFE" points="95.24 1.75916115 56.86 1.75916115 56.86 11.8091611 70.28 11.8091611 70.28 55.4331611 81.8 55.4331611 81.8 11.8091611 95.24 11.8091611 95.24 1.75916115"></polyline>
                <path d="M202.69,44.8811611 C191.82,45.9571611 182.77,36.9001611 183.84,26.0341611 C184.64,17.9931611 191.14,11.4901611 199.18,10.6931611 C210.05,9.61716115 219.11,18.6741611 218.03,29.5401611 C217.23,37.5811611 210.73,44.0851611 202.69,44.8811611 Z M202.74,0.0571611496 C185.97,-1.00283885 172.15,12.8231611 173.21,29.5921611 C174.08,43.4221611 185.3,54.6431611 199.13,55.5171611 C215.9,56.5771611 229.73,42.7521611 228.67,25.9821611 C227.79,12.1531611 216.57,0.93116115 202.74,0.0571611496 L202.74,0.0571611496 Z" id="Fill-29" fill="#FFFFFE"></path>
                <path d="M26.96,11.9381611 C27.24,11.9381611 41.83,11.9381611 41.83,11.9381611 L41.83,1.64616115 C41.83,1.64616115 27.23,1.64616115 26.96,1.64616115 C12.07,1.64616115 0,13.7181611 0,28.6101611 C0,43.5021611 12.07,55.5751611 26.96,55.5751611 C27.23,55.5751611 41.83,55.5751611 41.83,55.5751611 L41.83,45.2831611 C41.83,45.2831611 27.24,45.2831611 26.96,45.2831611 C17.75,45.2831611 10.29,37.8181611 10.29,28.6101611 C10.29,19.4021611 17.75,11.9381611 26.96,11.9381611" id="Fill-30" fill="#FFFFFE"></path>
                <path d="M135.51,55.2381611 L133.68,55.2381611 C121.03,55.2381611 110.78,44.9861611 110.78,32.3391611 L110.78,1.75916115 L122.72,1.75916115 L122.72,32.3391611 C122.72,38.3901611 127.63,43.2941611 133.68,43.2941611 L135.51,43.2941611 C141.56,43.2941611 146.47,38.3901611 146.47,32.3391611 L146.47,1.75916115 L158.41,1.75916115 L158.41,32.3391611 C158.41,44.9861611 148.16,55.2381611 135.51,55.2381611" id="Fill-31" fill="#FFFFFE"></path>
                <path d="M10.99,85.1111611 L16.81,85.1111611 L16.81,83.7621611 L10.99,83.7621611 L10.99,85.1111611 Z M10.99,82.4841611 L16.81,82.4841611 L16.81,81.2051611 L10.99,81.2051611 L10.99,82.4841611 Z M9.28,86.5311611 L18.59,86.5311611 L18.59,79.7851611 L9.28,79.7851611 L9.28,86.5311611 Z M8.08,89.1591611 L8.08,87.6671611 L19.79,87.6671611 L19.79,89.1591611 L14.89,89.1591611 L14.89,90.7921611 L19.23,90.7921611 L19.23,92.2121611 L14.89,92.2121611 L14.89,94.0591611 C16.41,94.0591611 18.11,94.0591611 20.01,94.0591611 C19.86,94.5791611 19.72,95.0761611 19.58,95.5501611 C17.78,95.5501611 16,95.5501611 14.25,95.5501611 C12.36,95.5501611 10.99,94.8631611 10.14,93.4911611 C9.76,94.3431611 9.14,95.1951611 8.29,96.0471611 C7.86,95.7631611 7.39,95.4311611 6.87,95.0531611 C8.29,93.8221611 9.07,92.0701611 9.21,89.7981611 L10.92,89.9401611 C10.87,90.5561611 10.8,91.1241611 10.7,91.6441611 C11.37,92.9701611 12.19,93.7511611 13.19,93.9881611 L13.19,89.1591611 L8.08,89.1591611 Z M2.89,84.2591611 L2.89,82.4841611 L4.81,82.4841611 L4.81,79.0751611 L6.51,79.0751611 L6.51,82.4841611 L8.15,82.4841611 L8.15,84.2591611 L6.51,84.2591611 L6.51,87.0281611 L8,86.5311611 C8,87.1951611 8.03,87.8091611 8.08,88.3781611 L6.51,88.8751611 L6.51,93.6331611 C6.56,95.0531611 5.97,95.7871611 4.74,95.8341611 C4.36,95.8811611 3.86,95.9051611 3.25,95.9051611 C3.15,95.2421611 3.03,94.6271611 2.89,94.0591611 C3.22,94.0591611 3.6,94.0591611 4.03,94.0591611 C4.55,94.1051611 4.81,93.8461611 4.81,93.2781611 L4.81,89.5141611 C4.19,89.7041611 3.55,89.9171611 2.89,90.1531611 L2.68,88.2361611 C3.39,87.9991611 4.1,87.7871611 4.81,87.5971611 L4.81,84.2591611 L2.89,84.2591611 L2.89,84.2591611 Z" id="Fill-32" fill="#FFFFFE"></path>
                <path d="M39.82,95.9761611 C38.59,94.6981611 37.29,93.4201611 35.92,92.1421611 L37.34,91.0051611 C37.81,91.4311611 38.48,92.0471611 39.33,92.8511611 C40.18,93.6091611 40.84,94.2011611 41.32,94.6271611 L39.82,95.9761611 Z M33.43,88.8041611 L36.77,88.8041611 L36.77,84.3301611 L33.43,84.3301611 L33.43,88.8041611 Z M29.46,84.3301611 L29.46,82.6261611 L31.59,82.6261611 L31.59,79.1461611 L33.43,79.1461611 L33.43,82.6261611 L36.77,82.6261611 L36.77,79.1461611 L38.62,79.1461611 L38.62,82.6261611 L40.75,82.6261611 L40.75,84.3301611 L38.62,84.3301611 L38.62,88.8041611 L41.32,88.8041611 L41.32,90.5081611 L28.89,90.5081611 L28.89,88.8041611 L31.59,88.8041611 L31.59,84.3301611 L29.46,84.3301611 Z M30.24,96.0471611 C29.91,95.6671611 29.41,95.2181611 28.75,94.6981611 C29.83,93.9411611 31.14,92.7091611 32.65,91.0051611 L34.21,92.0701611 C32.94,93.3961611 31.61,94.7211611 30.24,96.0471611 Z M24.56,89.2301611 C24.51,88.9461611 24.44,88.5201611 24.34,87.9521611 C24.25,87.3371611 24.18,86.9111611 24.13,86.6731611 C25.64,84.4491611 26.8,81.9151611 27.61,79.0751611 L29.53,79.5721611 C29.1,80.8981611 28.6,82.1531611 28.04,83.3361611 L28.04,96.0471611 L26.19,96.0471611 L26.19,86.8871611 C25.67,87.6441611 25.12,88.4251611 24.56,89.2301611 L24.56,89.2301611 Z" id="Fill-33" fill="#FFFFFE"></path>
                <path d="M57.94,83.9751611 L55.45,84.6851611 C55.03,82.8871611 53.94,82.0111611 52.19,82.0581611 C50.2,82.0581611 49.18,82.7211611 49.13,84.0461611 C48.94,84.9941611 50.06,85.6791611 52.47,86.1051611 C56.49,86.8631611 58.46,88.4491611 58.36,90.8631611 C58.22,93.6091611 56.3,95.0291611 52.61,95.1241611 C48.92,95.2661611 46.74,93.7511611 46.08,90.5791611 L48.49,89.8691611 C48.73,92.0471611 50.08,93.0891611 52.54,92.9941611 C54.72,92.9941611 55.81,92.2601611 55.81,90.7921611 C56,89.7041611 54.77,88.8991611 52.12,88.3781611 C48.28,87.6211611 46.43,86.1761611 46.58,84.0461611 C46.72,81.3951611 48.56,80.0231611 52.12,79.9271611 C55.33,79.9751611 57.27,81.3241611 57.94,83.9751611" id="Fill-34" fill="#FFFFFE"></path>
                <path d="M70.87,90.5791611 C70.87,90.3911611 70.87,90.0591611 70.87,89.5851611 C70.44,90.0111611 69.52,90.2951611 68.1,90.4371611 C66.49,90.5791611 65.73,91.1011611 65.83,91.9991611 C65.78,92.7571611 66.39,93.1361611 67.67,93.1361611 C69.66,92.9941611 70.73,92.1421611 70.87,90.5791611 Z M74.13,94.9111611 L71.79,94.9111611 C71.41,94.6271611 71.2,94.1761611 71.15,93.5611611 C70.35,94.6021611 69.07,95.1241611 67.32,95.1241611 C64.81,95.0761611 63.51,94.0591611 63.41,92.0701611 C63.46,89.9401611 64.86,88.7331611 67.6,88.4491611 C69.54,88.2601611 70.63,88.0231611 70.87,87.7391611 C71.01,86.3661611 70.3,85.7271611 68.74,85.8211611 C67.08,85.7271611 66.16,86.3431611 65.97,87.6671611 L63.7,87.0281611 C64.22,84.7561611 65.92,83.6671611 68.81,83.7621611 C71.79,83.7151611 73.26,85.1361611 73.21,88.0231611 L73.21,92.1421611 C73.21,93.3731611 73.52,94.2951611 74.13,94.9111611 L74.13,94.9111611 Z" id="Fill-35" fill="#FFFFFE"></path>
                <path d="M105.96,83.9751611 L103.47,84.6851611 C103.05,82.8871611 101.96,82.0111611 100.21,82.0581611 C98.22,82.0581611 97.2,82.7211611 97.15,84.0461611 C96.96,84.9941611 98.08,85.6791611 100.49,86.1051611 C104.51,86.8631611 106.48,88.4491611 106.39,90.8631611 C106.24,93.6091611 104.33,95.0291611 100.63,95.1241611 C96.94,95.2661611 94.76,93.7511611 94.1,90.5791611 L96.51,89.8691611 C96.75,92.0471611 98.1,93.0891611 100.56,92.9941611 C102.74,92.9941611 103.83,92.2601611 103.83,90.7921611 C104.02,89.7041611 102.79,88.8991611 100.14,88.3781611 C96.3,87.6211611 94.46,86.1761611 94.6,84.0461611 C94.74,81.3951611 96.59,80.0231611 100.14,79.9271611 C103.36,79.9751611 105.3,81.3241611 105.96,83.9751611" id="Fill-37" fill="#FFFFFE"></path>
                <path d="M117.04,91.2891611 C116.85,90.8631611 116.48,90.2721611 115.91,89.5141611 C117.37,88.8041611 118.68,88.0701611 119.81,87.3121611 L119.81,79.2881611 L121.87,79.2881611 L121.87,85.8931611 C123.53,84.5671611 125.02,83.0761611 126.35,81.4181611 L127.91,82.7681611 C126.16,84.8041611 124.14,86.6501611 121.87,88.3071611 L121.87,92.4971611 C121.82,93.3961611 122.25,93.8221611 123.15,93.7751611 L124.5,93.7751611 C125.45,93.8221611 125.97,93.4441611 126.06,92.6391611 C126.11,92.2121611 126.23,91.2431611 126.42,89.7271611 C126.61,89.7751611 126.94,89.8931611 127.41,90.0821611 C127.84,90.2241611 128.14,90.3431611 128.33,90.4371611 C128.19,91.7151611 128.03,92.7811611 127.84,93.6331611 C127.65,94.9571611 126.61,95.5971611 124.71,95.5501611 L122.58,95.5501611 C120.64,95.6441611 119.72,94.7211611 119.81,92.7811611 L119.81,89.6561611 C119.06,90.1301611 118.13,90.6751611 117.04,91.2891611 Z M111.72,89.6561611 L111.01,87.2421611 C112.85,84.9221611 114.35,82.2241611 115.48,79.1461611 L117.47,79.7851611 C116.85,81.2531611 116.19,82.6501611 115.48,83.9751611 L115.48,95.9761611 L113.63,95.9761611 L113.63,87.0281611 C113.45,87.3121611 113.14,87.7391611 112.71,88.3071611 C112.29,88.9221611 111.95,89.3721611 111.72,89.6561611 L111.72,89.6561611 Z" id="Fill-38" fill="#FFFFFE"></path>
                <path d="M144.32,90.9341611 C143.51,89.7041611 142.64,88.4491611 141.69,87.1701611 L143.18,86.2471611 C144.03,87.2421611 144.96,88.4491611 145.95,89.8691611 L144.32,90.9341611 Z M142.83,95.6921611 C142.73,94.9821611 142.61,94.3901611 142.47,93.9171611 C142.76,93.9171611 143.18,93.9171611 143.75,93.9171611 C144.36,93.9641611 144.84,93.9881611 145.17,93.9881611 C146.45,93.9881611 147.09,93.3731611 147.09,92.1421611 C147.13,91.3851611 147.18,89.7751611 147.23,87.3121611 C147.28,85.5611611 147.3,84.3301611 147.3,83.6201611 L143.39,83.6201611 C142.97,84.5671611 142.54,85.4431611 142.12,86.2471611 C142.02,86.2011611 141.88,86.1051611 141.69,85.9631611 C141.45,85.8211611 141.05,85.6081611 140.48,85.3241611 C141.57,83.3361611 142.42,81.2531611 143.04,79.0751611 L144.96,79.5011611 C144.91,79.6911611 144.81,79.9521611 144.67,80.2821611 C144.48,80.9461611 144.29,81.4661611 144.1,81.8451611 L149.22,81.8451611 C149.12,87.0051611 149.03,90.5561611 148.93,92.4971611 C148.98,94.6271611 147.96,95.6671611 145.88,95.6211611 C144.93,95.6671611 143.92,95.6921611 142.83,95.6921611 Z M135.09,92.7811611 L138.42,92.7811611 L138.42,89.0881611 L135.09,89.0881611 L135.09,92.7811611 Z M135.09,87.3121611 L138.42,87.3121611 L138.42,83.6201611 L135.09,83.6201611 L135.09,87.3121611 Z M133.24,95.7631611 L133.24,81.8451611 L135.16,81.8451611 C135.3,81.3241611 135.49,80.6141611 135.73,79.7141611 C135.77,79.4301611 135.82,79.2171611 135.87,79.0751611 L137.86,79.3591611 C137.67,80.2111611 137.43,81.0401611 137.15,81.8451611 L140.2,81.8451611 L140.2,95.6921611 L138.42,95.6921611 L138.42,94.4141611 L135.09,94.4141611 L135.09,95.7631611 L133.24,95.7631611 L133.24,95.7631611 Z" id="Fill-39" fill="#FFFFFE"></path>
                <path d="M169.75,95.6921611 C165.72,93.5611611 163.35,90.4851611 162.64,86.4601611 C161.93,90.4371611 159.52,93.5861611 155.4,95.9051611 C155.02,95.2891611 154.57,94.6981611 154.05,94.1301611 C158.6,91.8111611 161.03,88.2601611 161.37,83.4781611 C161.46,82.3421611 161.51,80.9211611 161.51,79.2171611 L163.64,79.2171611 C163.59,79.3591611 163.57,79.7851611 163.57,80.4961611 C163.52,81.0631611 163.5,81.4901611 163.5,81.7731611 C163.92,87.9281611 166.48,91.9761611 171.17,93.9171611 C170.55,94.5791611 170.08,95.1701611 169.75,95.6921611" id="Fill-40" fill="#FFFFFE"></path>
                <polyline id="Fill-41" fill="#FFFFFE" points="176.64 82.4131611 176.64 80.4961611 191.48 80.4961611 191.48 82.4131611 185.16 82.4131611 185.16 93.0641611 192.48 93.0641611 192.48 94.8401611 175.72 94.8401611 175.72 93.0641611 183.03 93.0641611 183.03 82.4131611 176.64 82.4131611"></polyline>
                <path d="M208.39,85.4661611 L211.58,85.4661611 L211.58,81.7731611 L208.39,81.7731611 L208.39,85.4661611 Z M206.68,86.9571611 L213.29,86.9571611 L213.29,80.2111611 L206.68,80.2111611 L206.68,86.9571611 Z M201.07,93.9881611 L210.09,93.9881611 L210.09,92.4251611 L201.07,92.4251611 L201.07,93.9881611 Z M201.07,91.1471611 L210.09,91.1471611 L210.09,89.6561611 L201.07,89.6561611 L201.07,91.1471611 Z M204.91,88.1641611 C204.34,87.7391611 203.56,87.1701611 202.56,86.4601611 C202.28,86.2241611 202.04,86.0591611 201.85,85.9631611 C201.43,86.7211611 200.58,87.4551611 199.3,88.1641611 L204.91,88.1641611 Z M204.91,88.1641611 L212.01,88.1641611 L212.01,96.0471611 L210.09,96.0471611 L210.09,95.2661611 L201.07,95.2661611 L201.07,96.0471611 L199.23,96.0471611 L199.23,88.2361611 C198.85,88.3781611 198.47,88.5671611 198.09,88.8041611 C197.76,88.2841611 197.4,87.7871611 197.03,87.3121611 C199.01,86.6021611 200.25,85.7501611 200.72,84.7561611 L197.17,84.7561611 L197.17,83.3361611 L201.07,83.3361611 C201.17,82.8631611 201.22,82.3421611 201.22,81.7731611 L199.51,81.7731611 C199.18,82.2471611 198.73,82.7451611 198.16,83.2651611 C198.07,83.1701611 197.95,83.0521611 197.81,82.9101611 C197.71,82.7681611 197.45,82.5081611 197.03,82.1291611 C198.07,81.2301611 198.8,80.1641611 199.23,78.9331611 L200.93,79.0751611 C200.79,79.5491611 200.6,79.9751611 200.36,80.3531611 L205.48,80.3531611 L205.48,81.7731611 L202.99,81.7731611 C202.99,81.9631611 202.97,82.2241611 202.92,82.5551611 C202.92,82.9341611 202.9,83.1941611 202.85,83.3361611 L205.97,83.3361611 L205.97,84.7561611 L202.64,84.7561611 C203.16,85.0881611 203.96,85.5851611 205.05,86.2471611 C205.43,86.4851611 205.71,86.6501611 205.9,86.7451611 L204.91,88.1641611 L204.91,88.1641611 Z" id="Fill-42" fill="#FFFFFE"></path>
                <path d="M230.41,95.6921611 C228.89,95.7391611 228.14,95.0051611 228.14,93.4911611 L228.14,87.7391611 L229.91,87.7391611 L229.91,90.0821611 C231.62,89.4201611 233.08,88.7331611 234.31,88.0231611 L235.31,89.4431611 C234.03,90.1061611 232.23,90.9111611 229.91,91.8571611 L229.91,93.1361611 C229.91,93.7991611 230.27,94.1051611 230.98,94.0591611 L232.47,94.0591611 C233.18,94.1051611 233.56,93.8701611 233.6,93.3491611 C233.7,92.8281611 233.77,92.1891611 233.82,91.4311611 C234,91.4791611 234.27,91.5731611 234.6,91.7151611 C234.98,91.8571611 235.26,91.9531611 235.45,91.9991611 C235.4,92.5211611 235.31,93.1601611 235.17,93.9171611 L235.17,93.9881611 C234.88,95.1241611 234.1,95.6921611 232.82,95.6921611 L230.41,95.6921611 Z M230.41,86.9571611 C228.89,86.9571611 228.14,86.2011611 228.14,84.6851611 L228.14,79.1461611 L229.91,79.1461611 L229.91,81.7731611 C231.19,81.3011611 232.61,80.6371611 234.17,79.7851611 L235.17,81.1341611 C233.46,81.9871611 231.71,82.7681611 229.91,83.4781611 L229.91,84.3301611 C229.86,85.0401611 230.22,85.3721611 230.98,85.3241611 L232.4,85.3241611 C233.11,85.3721611 233.51,85.0881611 233.6,84.4721611 C233.7,83.8571611 233.77,83.2651611 233.82,82.6971611 C233.91,82.7451611 234.08,82.7921611 234.31,82.8391611 C234.6,82.9341611 234.98,83.0761611 235.45,83.2651611 C235.4,83.8811611 235.28,84.5431611 235.09,85.2531611 C234.9,86.3901611 234.12,86.9571611 232.75,86.9571611 L230.41,86.9571611 Z M220.89,91.2891611 L224.94,91.2891611 L224.94,89.8691611 L220.89,89.8691611 L220.89,91.2891611 Z M220.89,88.5911611 L224.94,88.5911611 L224.94,87.1701611 L220.89,87.1701611 L220.89,88.5911611 Z M219.26,95.9051611 L219.26,85.7501611 L226.57,85.7501611 L226.57,93.9171611 C226.62,95.1001611 226.03,95.7151611 224.8,95.7631611 C224.66,95.7631611 224.37,95.7631611 223.95,95.7631611 C223.42,95.8091611 223.05,95.8341611 222.81,95.8341611 C222.76,95.5971611 222.71,95.2661611 222.67,94.8401611 C222.57,94.5561611 222.53,94.3431611 222.53,94.2011611 C222.81,94.2471611 223.33,94.2721611 224.09,94.2721611 C224.66,94.2721611 224.94,94.0821611 224.94,93.7041611 L224.94,92.6391611 L220.89,92.6391611 L220.89,95.9051611 L219.26,95.9051611 Z M226.5,85.2531611 C226.31,84.9221611 226.1,84.6141611 225.86,84.3301611 C224.49,84.3781611 222.69,84.4491611 220.47,84.5431611 C220.28,84.5431611 220.02,84.5671611 219.69,84.6141611 C219.35,84.6621611 219.09,84.7091611 218.9,84.7561611 L218.26,83.1941611 C218.74,82.9571611 219.14,82.6261611 219.47,82.2001611 C220.42,81.2531611 221.27,80.1401611 222.03,78.8621611 L223.95,79.5011611 C223.8,79.6431611 223.59,79.8811611 223.31,80.2111611 C222.22,81.4901611 221.36,82.4371611 220.75,83.0521611 C221.18,83.0051611 221.84,82.9811611 222.74,82.9811611 C223.64,82.9341611 224.3,82.9101611 224.73,82.9101611 L223.52,81.3481611 L224.8,80.5661611 C225.7,81.5141611 226.74,82.7451611 227.92,84.2591611 L226.5,85.2531611 L226.5,85.2531611 Z" id="Fill-43" fill="#FFFFFE"></path>
                <path d="M254.49,87.7391611 L251.15,87.7391611 C251.67,89.3011611 252.24,90.4611611 252.85,91.2181611 C253.56,90.2241611 254.11,89.0641611 254.49,87.7391611 Z M249.3,94.1301611 C250.2,93.6571611 251.01,93.0891611 251.72,92.4251611 C250.91,91.3371611 250.23,89.9401611 249.66,88.2361611 L250.65,87.7391611 L249.3,87.7391611 L249.3,94.1301611 Z M256.19,95.9051611 C254.87,95.1471611 253.75,94.4371611 252.85,93.7751611 C252.1,94.3901611 251.17,95.0761611 250.08,95.8341611 L249.3,94.6981611 L249.3,95.9761611 L247.53,95.9761611 L247.53,79.9271611 L256.05,79.9271611 C256.05,80.2591611 256.02,80.7081611 255.98,81.2761611 C255.98,81.9401611 255.95,82.4131611 255.91,82.6971611 C255.86,84.2121611 255.06,84.9691611 253.49,84.9691611 C252.78,84.9691611 251.95,84.9691611 251.01,84.9691611 C250.96,84.4971611 250.87,83.9991611 250.72,83.4781611 C251.48,83.4781611 252.14,83.4781611 252.71,83.4781611 C253.66,83.5261611 254.16,83.1941611 254.2,82.4841611 C254.2,82.1531611 254.2,81.8211611 254.2,81.4901611 L249.3,81.4901611 L249.3,86.1051611 L256.19,86.1051611 L256.19,87.8811611 C255.53,89.8691611 254.79,91.3851611 253.99,92.4251611 C254.84,93.1361611 255.88,93.7511611 257.11,94.2721611 C256.97,94.5081611 256.76,94.8631611 256.48,95.3371611 C256.33,95.6211611 256.24,95.8091611 256.19,95.9051611 Z M242.56,88.2361611 L242.56,88.8751611 L244.62,88.8751611 L244.62,85.8211611 L242.56,85.8211611 L242.56,88.2361611 Z M242.56,84.3301611 L244.62,84.3301611 L244.62,81.4181611 L242.56,81.4181611 L242.56,84.3301611 Z M241.14,96.0471611 C240.9,95.8571611 240.57,95.5261611 240.14,95.0531611 C240,94.9111611 239.88,94.7921611 239.79,94.6981611 C240.64,93.5151611 241.02,91.2431611 240.92,87.8811611 L240.92,79.8561611 L246.25,79.8561611 L246.25,93.9171611 C246.25,95.0051611 245.7,95.5971611 244.62,95.6921611 C244.14,95.7391611 243.55,95.7631611 242.84,95.7631611 C242.79,95.4791611 242.72,95.0531611 242.63,94.4851611 C242.58,94.2951611 242.56,94.1531611 242.56,94.0591611 C242.75,94.1051611 243.15,94.1301611 243.76,94.1301611 C244.38,94.1761611 244.66,93.9411611 244.62,93.4201611 L244.62,90.3661611 L242.49,90.3661611 C242.44,92.6391611 241.99,94.5311611 241.14,96.0471611 L241.14,96.0471611 Z" id="Fill-44" fill="#FFFFFE"></path>
                <path d="M274.02,82.0581611 L266.64,82.0581611 C267.72,83.1001611 268.88,83.9041611 270.12,84.4721611 C271.39,83.9041611 272.69,83.1001611 274.02,82.0581611 Z M269.97,95.7631611 C269.97,95.5261611 269.93,95.1471611 269.83,94.6271611 C269.74,94.2951611 269.69,94.0821611 269.69,93.9881611 C270.02,93.9881611 270.52,93.9881611 271.18,93.9881611 C271.84,93.9881611 272.36,93.9881611 272.74,93.9881611 C273.88,94.0821611 274.47,93.5861611 274.52,92.4971611 C274.52,92.3081611 274.54,91.9991611 274.59,91.5731611 C274.59,91.1011611 274.59,90.7921611 274.59,90.6501611 L269.19,90.6501611 C268.81,93.1121611 266.59,94.9341611 262.52,96.1181611 C262.37,95.9281611 262.16,95.5971611 261.88,95.1241611 C261.59,94.7451611 261.43,94.5081611 261.38,94.4141611 C264.84,93.6091611 266.78,92.3541611 267.2,90.6501611 L262.45,90.6501611 L262.45,89.0881611 L267.56,89.0881611 C267.65,88.5671611 267.7,87.9991611 267.7,87.3841611 L269.69,87.3841611 L269.48,89.0881611 L276.65,89.0881611 C276.6,90.3661611 276.53,91.5501611 276.44,92.6391611 C276.39,94.7691611 275.25,95.7871611 273.03,95.6921611 C272.32,95.7391611 271.3,95.7631611 269.97,95.7631611 Z M261.95,88.3071611 C261.9,88.1641611 261.78,87.9051611 261.59,87.5261611 C261.4,87.1001611 261.26,86.7921611 261.17,86.6021611 C264.01,86.2721611 266.28,85.8211611 267.98,85.2531611 C267.04,84.6851611 266.11,83.9281611 265.22,82.9811611 C264.51,83.5971611 263.7,84.2591611 262.8,84.9691611 C262.56,84.6391611 262.14,84.1641611 261.52,83.5491611 C263.61,82.2241611 265.31,80.7081611 266.64,79.0041611 L268.69,79.2881611 C268.36,79.7141611 268.06,80.0941611 267.77,80.4241611 L276.51,80.4241611 L276.51,82.1291611 C274.9,83.6441611 273.5,84.6851611 272.32,85.2531611 C274.07,85.7751611 276.15,86.1301611 278.57,86.3181611 C278.42,86.6021611 278.21,87.0761611 277.93,87.7391611 C277.88,87.8811611 277.83,87.9761611 277.78,88.0231611 C274.61,87.6921611 272.06,87.1241611 270.12,86.3181611 C268.32,87.0761611 265.59,87.7391611 261.95,88.3071611 L261.95,88.3071611 Z" id="Fill-45" fill="#FFFFFE"></path>
                <path d="M86.14,90.5791611 C86.14,90.3911611 86.14,90.0591611 86.14,89.5851611 C85.72,90.0111611 84.79,90.2951611 83.37,90.4371611 C81.76,90.5791611 81,91.1011611 81.1,91.9991611 C81.05,92.7571611 81.67,93.1361611 82.95,93.1361611 C84.93,92.9941611 86,92.1421611 86.14,90.5791611 Z M89.41,94.9111611 L87.06,94.9111611 C86.69,94.6271611 86.47,94.1761611 86.43,93.5611611 C85.62,94.6021611 84.34,95.1241611 82.59,95.1241611 C80.08,95.0761611 78.78,94.0591611 78.69,92.0701611 C78.73,89.9401611 80.13,88.7331611 82.87,88.4491611 C84.82,88.2601611 85.9,88.0231611 86.14,87.7391611 C86.28,86.3661611 85.57,85.7271611 84.01,85.8211611 C82.35,85.7271611 81.43,86.3431611 81.24,87.6671611 L78.97,87.0281611 C79.49,84.7561611 81.19,83.6671611 84.08,83.7621611 C87.06,83.7151611 88.53,85.1361611 88.49,88.0231611 L88.49,92.1421611 C88.49,93.3731611 88.79,94.2951611 89.41,94.9111611 L89.41,94.9111611 Z" id="Fill-36" fill="#FFFFFE"></path>
            </g>
        </g>
    </g>
</svg>