<?xml version="1.0" encoding="UTF-8"?>
<svg width="24px" height="24px" viewBox="0 0 24 24" version="1.1" xmlns="http://www.w3.org/2000/svg" xmlns:xlink="http://www.w3.org/1999/xlink">
    <title>mail-fill</title>
    <g id="页面" stroke="none" stroke-width="1" fill="none" fill-rule="evenodd">
        <g id="通知管理-通知模板-编辑" transform="translate(-372.000000, -200.000000)" fill-rule="nonzero">
            <g id="mail-fill" transform="translate(372.000000, 200.000000)">
                <rect id="矩形" fill="#000000" opacity="0" x="0" y="0" width="24" height="24"></rect>
                <path d="M21.75,3.75 L2.25,3.75 C1.83515625,3.75 1.5,4.08515625 1.5,4.5 L1.5,19.5 C1.5,19.9148437 1.83515625,20.25 2.25,20.25 L21.75,20.25 C22.1648438,20.25 22.5,19.9148437 22.5,19.5 L22.5,4.5 C22.5,4.08515625 22.1648438,3.75 21.75,3.75 Z M19.85625,6.30234375 L12.4617187,12.05625 C12.2789063,12.1992188 12.0234375,12.1992188 11.840625,12.05625 L4.44375,6.30234375 C4.4015625,6.26953125 4.378125,6.2203125 4.378125,6.16875 C4.378125,6.075 4.453125,6 4.546875,6 L19.753125,6 C19.8046875,6 19.8539062,6.0234375 19.8867187,6.065625 C19.9429687,6.13828125 19.93125,6.24375 19.85625,6.30234375 Z" id="形状" fill="#347FFF"></path>
            </g>
        </g>
    </g>
</svg>