<?xml version="1.0" encoding="UTF-8"?>
<svg width="24px" height="24px" viewBox="0 0 24 24" version="1.1" xmlns="http://www.w3.org/2000/svg" xmlns:xlink="http://www.w3.org/1999/xlink">
    <title>1.通用/2.图标/2.设计/ai视界</title>
    <g id="1.通用/2.图标/2.设计/ai视界" stroke="none" stroke-width="1" fill="none" fill-rule="evenodd">
        <g id="1.通用/2.图标/2.设计/视界中心" transform="translate(2.000000, 4.000000)" fill="#1AAEF6" fill-rule="nonzero">
            <path d="M13.7795201,14.863388 C14.0933868,14.863388 14.3478261,15.1178272 14.3478261,15.431694 C14.3478261,15.7455607 14.0933868,16 13.7795201,16 L6.22047992,16 C5.90661318,16 5.65217391,15.7455607 5.65217391,15.431694 C5.65217391,15.1178272 5.90661318,14.863388 6.22047992,14.863388 L13.7795201,14.863388 Z M19.1304348,0 C19.576379,0 19.9439193,0.337521478 19.9941498,0.772353114 L20,0.87431694 L20,13.1147541 C20,13.5631352 19.6643129,13.9326839 19.2318445,13.9831889 L19.1304348,13.989071 L0.869565217,13.989071 C0.423621009,13.989071 0.0560807298,13.6515496 0.00585020115,13.2167179 L0,13.1147541 L0,0.87431694 C0,0.425935878 0.335687122,0.0563871819 0.768155543,0.00588216946 L0.869565217,0 L19.1304348,0 Z M5.43478261,6.12021858 C4.8344731,6.12021858 4.34782609,6.60686559 4.34782609,7.2071751 L4.34782609,7.2071751 L4.34782609,11.3661202 L6.52173913,11.3661202 L6.52173913,7.2071751 C6.52173913,6.60686559 6.03509212,6.12021858 5.43478261,6.12021858 Z M15,3.49726776 C14.3996905,3.49726776 13.9130435,3.98391477 13.9130435,4.58422428 L13.9130435,4.58422428 L13.9130435,11.3661202 L16.0869565,11.3661202 L16.0869565,4.58422428 C16.0869565,3.98391477 15.6003095,3.49726776 15,3.49726776 Z M10.2173913,7.86885246 C9.61708179,7.86885246 9.13043478,8.35549947 9.13043478,8.95580898 L9.13043478,8.95580898 L9.13043478,11.3661202 L11.3043478,11.3661202 L11.3043478,8.95580898 C11.3043478,8.35549947 10.8177008,7.86885246 10.2173913,7.86885246 Z" id="形状结合"></path>
        </g>
    </g>
</svg>