<?xml version="1.0" encoding="UTF-8"?>
<svg width="260px" height="862px" viewBox="0 0 260 862" version="1.1" xmlns="http://www.w3.org/2000/svg" xmlns:xlink="http://www.w3.org/1999/xlink">
    <title>内容/左侧/底部</title>
    <g id="内容/左侧/底部" stroke="none" stroke-width="1" fill="none" fill-rule="evenodd">
        <rect id="矩形" fill="#0A84C0" opacity="0.0992998396" x="1" y="1" width="258" height="861"></rect>
        <rect id="矩形" fill="#1AAEF6" x="0" y="0" width="2" height="8"></rect>
        <rect id="矩形备份" fill="#1AAEF6" x="0" y="0" width="8" height="2"></rect>
        <g id="编组" transform="translate(256.000000, 4.000000) scale(-1, 1) translate(-256.000000, -4.000000) translate(252.000000, 0.000000)" fill="#1AAEF6">
            <rect id="矩形备份-2" transform="translate(1.000000, 4.000000) scale(-1, -1) translate(-1.000000, -4.000000) " x="0" y="0" width="2" height="8"></rect>
            <rect id="矩形备份-3" transform="translate(4.000000, 1.000000) scale(-1, -1) translate(-4.000000, -1.000000) " x="0" y="0" width="8" height="2"></rect>
        </g>
        <g id="编组" transform="translate(4.000000, 859.000000) scale(1, -1) translate(-4.000000, -859.000000) translate(0.000000, 855.000000)" fill="#1AAEF6">
            <rect id="矩形备份-2" transform="translate(1.000000, 4.000000) scale(-1, -1) translate(-1.000000, -4.000000) " x="0" y="0" width="2" height="8"></rect>
            <rect id="矩形备份-3" transform="translate(4.000000, 1.000000) scale(-1, -1) translate(-4.000000, -1.000000) " x="0" y="0" width="8" height="2"></rect>
        </g>
        <g id="编组" transform="translate(256.000000, 859.000000) scale(-1, -1) translate(-256.000000, -859.000000) translate(252.000000, 855.000000)" fill="#1AAEF6">
            <rect id="矩形备份-2" transform="translate(1.000000, 4.000000) scale(-1, -1) translate(-1.000000, -4.000000) " x="0" y="0" width="2" height="8"></rect>
            <rect id="矩形备份-3" transform="translate(4.000000, 1.000000) scale(-1, -1) translate(-4.000000, -1.000000) " x="0" y="0" width="8" height="2"></rect>
        </g>
    </g>
</svg>