<?xml version="1.0" encoding="UTF-8"?>
<svg width="24px" height="24px" viewBox="0 0 24 24" version="1.1" xmlns="http://www.w3.org/2000/svg" xmlns:xlink="http://www.w3.org/1999/xlink">
    <title>1.通用/2.图标/2.设计/calendar_fill</title>
    <g id="1.通用/2.图标/2.设计/calendar_fill" stroke="none" stroke-width="1" fill="none" fill-rule="evenodd">
        <path d="M8.5,4 C8.66568542,4 8.8,4.13431458 8.8,4.3 L8.8,4.923 L14.2,4.923 L14.2,4.3 C14.2,4.13431458 14.3343146,4 14.5,4 L15.7,4 C15.8656854,4 16,4.13431458 16,4.3 L16,4.923 L21.7,4.92307692 C21.8656854,4.92307692 22,5.0573915 22,5.22307692 L22,19.7 C22,19.8656854 21.8656854,20 21.7,20 L1.3,20 C1.13431458,20 1,19.8656854 1,19.7 L1,5.22307692 C1,5.0573915 1.13431458,4.92307692 1.3,4.92307692 L7,4.923 L7,4.3 C7,4.13431458 7.13431458,4 7.3,4 L8.5,4 Z M20.2,8.30769231 L2.8,8.30769231 L2.8,18.1538462 L20.2,18.1538462 L20.2,8.30769231 Z M18.7,13.8461538 C18.8656854,13.8461538 19,13.9804684 19,14.1461538 L19,16.6230769 C19,16.7887623 18.8656854,16.9230769 18.7,16.9230769 L15.1,16.9230769 C14.9343146,16.9230769 14.8,16.7887623 14.8,16.6230769 L14.8,14.1461538 C14.8,13.9804684 14.9343146,13.8461538 15.1,13.8461538 L18.7,13.8461538 Z M13.3,13.8461538 C13.4656854,13.8461538 13.6,13.9804684 13.6,14.1461538 L13.6,16.6230769 C13.6,16.7887623 13.4656854,16.9230769 13.3,16.9230769 L9.7,16.9230769 C9.53431458,16.9230769 9.4,16.7887623 9.4,16.6230769 L9.4,14.1461538 C9.4,13.9804684 9.53431458,13.8461538 9.7,13.8461538 L13.3,13.8461538 Z M7.9,13.8461538 C8.06568542,13.8461538 8.2,13.9804684 8.2,14.1461538 L8.2,16.6230769 C8.2,16.7887623 8.06568542,16.9230769 7.9,16.9230769 L4.3,16.9230769 C4.13431458,16.9230769 4,16.7887623 4,16.6230769 L4,14.1461538 C4,13.9804684 4.13431458,13.8461538 4.3,13.8461538 L7.9,13.8461538 Z M18.7,9.53846154 C18.8656854,9.53846154 19,9.67277611 19,9.83846154 L19,12.3153846 C19,12.48107 18.8656854,12.6153846 18.7,12.6153846 L15.1,12.6153846 C14.9343146,12.6153846 14.8,12.48107 14.8,12.3153846 L14.8,9.83846154 C14.8,9.67277611 14.9343146,9.53846154 15.1,9.53846154 L18.7,9.53846154 Z M13.3,9.53846154 C13.4656854,9.53846154 13.6,9.67277611 13.6,9.83846154 L13.6,12.3153846 C13.6,12.48107 13.4656854,12.6153846 13.3,12.6153846 L9.7,12.6153846 C9.53431458,12.6153846 9.4,12.48107 9.4,12.3153846 L9.4,9.83846154 C9.4,9.67277611 9.53431458,9.53846154 9.7,9.53846154 L13.3,9.53846154 Z M7.9,9.53846154 C8.06568542,9.53846154 8.2,9.67277611 8.2,9.83846154 L8.2,12.3153846 C8.2,12.48107 8.06568542,12.6153846 7.9,12.6153846 L4.3,12.6153846 C4.13431458,12.6153846 4,12.48107 4,12.3153846 L4,9.83846154 C4,9.67277611 4.13431458,9.53846154 4.3,9.53846154 L7.9,9.53846154 Z" id="形状结合" fill="#1AAEF6"></path>
    </g>
</svg>