<?xml version="1.0" encoding="UTF-8"?>
<svg width="24px" height="24px" viewBox="0 0 24 24" version="1.1" xmlns="http://www.w3.org/2000/svg" xmlns:xlink="http://www.w3.org/1999/xlink">
    <title>1.通用/2.图标/2.设计/天气</title>
    <g id="1.通用/2.图标/2.设计/天气" stroke="none" stroke-width="1" fill="none" fill-rule="evenodd">
        <g id="ant-cloud" fill-rule="nonzero">
            <rect id="矩形" fill="#000000" opacity="0" x="0" y="0" width="24" height="24"></rect>
            <path d="M17.8921875,10.5703125 C17.390625,9.6703125 16.4320313,9.06328125 15.3304687,9.06328125 C15.16875,9.06328125 15.0117188,9.07734375 14.8570312,9.10078125 C14.0273438,7.28671875 12.1992187,6.028125 10.078125,6.028125 C7.44609375,6.028125 5.26640625,7.9640625 4.884375,10.490625 C2.98359375,10.6757813 1.5,12.2765625 1.5,14.2265625 C1.5,16.2984375 3.178125,17.9789063 5.25,17.98125 L6.421875,17.98125 L9.81328125,17.98125 L18.84375,17.98125 C20.8710938,17.9273438 22.5,16.2679688 22.5,14.2265625 C22.5,12.1523438 20.8195313,10.471875 18.7476562,10.471875 C18.4523437,10.471875 18.1664063,10.5070313 17.8921875,10.5703125 Z" id="形状" fill="#1AAEF6"></path>
        </g>
    </g>
</svg>