<?xml version="1.0" encoding="UTF-8"?>
<svg width="16px" height="16px" viewBox="0 0 16 16" version="1.1" xmlns="http://www.w3.org/2000/svg" xmlns:xlink="http://www.w3.org/1999/xlink">
    <title>1.通用/2.图标/2.设计/close_line</title>
    <defs>
        <filter color-interpolation-filters="auto" id="filter-1">
            <feColorMatrix in="SourceGraphic" type="matrix" values="0 0 0 0 1.000000 0 0 0 0 1.000000 0 0 0 0 1.000000 0 0 0 1.000000 0"></feColorMatrix>
        </filter>
    </defs>
    <g id="页面-1" stroke="none" stroke-width="1" fill="none" fill-rule="evenodd">
        <g id="监控室大屏-报警" transform="translate(-1262.000000, -344.000000)">
            <g id="告警" transform="translate(607.000000, 316.000000)">
                <g id="1.通用/2.图标/2.设计/close_line" transform="translate(651.000000, 24.000000)" filter="url(#filter-1)">
                    <g>
                        <path d="M13.2118139,12 L19.3057058,4.80138037 C19.4078511,4.68174847 19.3219562,4.5 19.1640954,4.5 L17.3115523,4.5 C17.2024426,4.5 17.0979759,4.54831288 17.0260099,4.63113497 L12,10.5690184 L6.9739901,4.63113497 C6.90434562,4.54831288 6.7998789,4.5 6.68844773,4.5 L4.83590459,4.5 C4.67804377,4.5 4.59214892,4.68174847 4.69429415,4.80138037 L10.7881861,12 L4.69429415,19.1986196 C4.59214892,19.3182515 4.67804377,19.5 4.83590459,19.5 L6.68844773,19.5 C6.79755742,19.5 6.90202414,19.4516871 6.9739901,19.368865 L12,13.4309816 L17.0260099,19.368865 C17.0956544,19.4516871 17.2001211,19.5 17.3115523,19.5 L19.1640954,19.5 C19.3219562,19.5 19.4078511,19.3182515 19.3057058,19.1986196 L13.2118139,12 Z" id="路径" fill="#CCD1DF"></path>
                    </g>
                </g>
            </g>
        </g>
    </g>
</svg>