<?xml version="1.0" encoding="UTF-8"?>
<svg width="24px" height="24px" viewBox="0 0 24 24" version="1.1" xmlns="http://www.w3.org/2000/svg" xmlns:xlink="http://www.w3.org/1999/xlink">
    <title>1.通用/2.图标/2.设计/雨</title>
    <g id="1.通用/2.图标/2.设计/雨" stroke="none" stroke-width="1" fill="none" fill-rule="evenodd">
        <g id="ant-cloud" fill="#000000" fill-rule="nonzero" opacity="0">
            <rect id="矩形" x="0" y="0" width="24" height="24"></rect>
        </g>
        <path d="M7.56,17.432 C7.128,17.18 6.552,17.252 6.312,17.672 L5.712,18.704 C5.472,19.196 5.688,19.664 6.12,19.916 C6.552,20.168 7.02,20.036 7.272,19.616 L7.872,18.584 C8.112,18.152 7.992,17.684 7.56,17.432 Z" id="路径备份" fill="#1AAEF6" fill-rule="nonzero"></path>
        <path d="M12.828,17.096 C12.276,16.772 11.544,16.868 11.244,17.396 L10.476,18.704 C10.176,19.328 10.44,19.928 10.992,20.24 C11.544,20.564 12.132,20.396 12.456,19.856 L13.224,18.548 C13.536,18.02 13.38,17.42 12.828,17.096 L12.828,17.096 Z" id="路径备份-2" fill="#1AAEF6" fill-rule="nonzero"></path>
        <path d="M17.688,17.432 C17.256,17.18 16.68,17.252 16.44,17.672 L15.84,18.704 C15.6,19.196 15.816,19.664 16.248,19.916 C16.68,20.168 17.148,20.036 17.4,19.616 L18,18.584 C18.24,18.152 18.12,17.684 17.688,17.432 Z" id="路径备份-3" fill="#1AAEF6" fill-rule="nonzero"></path>
        <path d="M17.8921875,7.5703125 C17.390625,6.6703125 16.4320313,6.06328125 15.3304687,6.06328125 C15.16875,6.06328125 15.0117188,6.07734375 14.8570312,6.10078125 C14.0273438,4.28671875 12.1992187,3.028125 10.078125,3.028125 C7.44609375,3.028125 5.26640625,4.9640625 4.884375,7.490625 C2.98359375,7.67578125 1.5,9.2765625 1.5,11.2265625 C1.5,13.2984375 3.178125,14.9789063 5.25,14.98125 L6.421875,14.98125 L9.81328125,14.98125 L18.84375,14.98125 C20.8710938,14.9273438 22.5,13.2679688 22.5,11.2265625 C22.5,9.15234375 20.8195313,7.471875 18.7476562,7.471875 C18.4523437,7.471875 18.1664063,7.50703125 17.8921875,7.5703125 Z" id="形状" fill="#1AAEF6" fill-rule="nonzero"></path>
    </g>
</svg>