<?xml version="1.0" encoding="UTF-8"?>
<svg width="24px" height="24px" viewBox="0 0 24 24" version="1.1" xmlns="http://www.w3.org/2000/svg" xmlns:xlink="http://www.w3.org/1999/xlink">
    <title>1.通用/2.图标/2.设计/雪</title>
    <g id="1.通用/2.图标/2.设计/雪" stroke="none" stroke-width="1" fill="none" fill-rule="evenodd">
        <g id="ant-cloud" fill="#000000" fill-rule="nonzero" opacity="0">
            <rect id="矩形" x="0" y="0" width="24" height="24"></rect>
        </g>
        <path d="M8.90078125,19.2320313 C8.565625,19.2320313 8.29375,19.5039063 8.29375,19.8390625 C8.29375,20.1742188 8.565625,20.4460938 8.90078125,20.4460938 C9.2359375,20.4460938 9.5078125,20.1742188 9.5078125,19.8390625 C9.5078125,19.5039063 9.2359375,19.2320313 8.90078125,19.2320313 Z" id="路径" fill="#1AAEF6"></path>
        <path d="M11.33125,16.8015625 C10.9960937,16.8015625 10.7242187,17.0734375 10.7242187,17.4085938 C10.7242187,17.74375 10.9960937,18.015625 11.33125,18.015625 C11.6664062,18.015625 11.9382812,17.74375 11.9382812,17.4085938 C11.9382812,17.0734375 11.6664062,16.8015625 11.33125,16.8015625 Z" id="路径" fill="#1AAEF6"></path>
        <path d="M7.684375,16.8015625 C7.34921875,16.8015625 7.07734375,17.0734375 7.07734375,17.4085938 C7.07734375,17.74375 7.34921875,18.015625 7.684375,18.015625 C8.01953125,18.015625 8.29140625,17.74375 8.29140625,17.4085938 C8.29375,17.0734375 8.021875,16.8015625 7.684375,16.8015625 Z" id="路径" fill="#1AAEF6"></path>
        <path d="M12.5476562,19.2320313 C12.2125,19.2320313 11.940625,19.5039063 11.940625,19.8390625 C11.940625,20.1742188 12.2125,20.4460938 12.5476562,20.4460938 C12.8828125,20.4460938 13.1546875,20.1742188 13.1546875,19.8390625 C13.1546875,19.5039063 12.8828125,19.2320313 12.5476562,19.2320313 Z" id="路径" fill="#1AAEF6"></path>
        <path d="M14.978125,16.8015625 C14.6429687,16.8015625 14.3710937,17.0734375 14.3710937,17.4085938 C14.3710937,17.74375 14.6429687,18.015625 14.978125,18.015625 C15.3132812,18.015625 15.5851562,17.74375 15.5851562,17.4085938 C15.5851562,17.0734375 15.3132812,16.8015625 14.978125,16.8015625 Z" id="路径" fill="#1AAEF6"></path>
        <path d="M17.8921875,7.5703125 C17.390625,6.6703125 16.4320313,6.06328125 15.3304687,6.06328125 C15.16875,6.06328125 15.0117188,6.07734375 14.8570312,6.10078125 C14.0273438,4.28671875 12.1992187,3.028125 10.078125,3.028125 C7.44609375,3.028125 5.26640625,4.9640625 4.884375,7.490625 C2.98359375,7.67578125 1.5,9.2765625 1.5,11.2265625 C1.5,13.2984375 3.178125,14.9789063 5.25,14.98125 L6.421875,14.98125 L9.81328125,14.98125 L18.84375,14.98125 C20.8710938,14.9273438 22.5,13.2679688 22.5,11.2265625 C22.5,9.15234375 20.8195313,7.471875 18.7476562,7.471875 C18.4523437,7.471875 18.1664063,7.50703125 17.8921875,7.5703125 Z" id="形状" fill="#1AAEF6" fill-rule="nonzero"></path>
    </g>
</svg>