<?xml version="1.0" encoding="UTF-8"?>
<svg width="24px" height="24px" viewBox="0 0 24 24" version="1.1" xmlns="http://www.w3.org/2000/svg" xmlns:xlink="http://www.w3.org/1999/xlink">
    <title>1.通用/2.图标/2.设计/晴</title>
    <g id="1.通用/2.图标/2.设计/晴" stroke="none" stroke-width="1" fill="none" fill-rule="evenodd">
        <g id="ant-cloud" fill="#000000" fill-rule="nonzero" opacity="0">
            <rect id="矩形" x="0" y="0" width="24" height="24"></rect>
        </g>
        <g id="晴" fill="#1AAEF6" fill-rule="nonzero">
            <rect id="矩形" opacity="0" x="0" y="0" width="24" height="24"></rect>
            <path d="M12,4.608 C12.456,4.608 12.828,4.248 12.828,3.768 L12.828,2.664 C12.828,2.196 12.456,1.824 12,1.824 C11.544,1.824 11.172,2.184 11.172,2.664 L11.172,3.768 C11.172,4.236 11.544,4.608 12,4.608 Z M18.144,6.732 L18.924,5.952 C19.248,5.628 19.26,5.1 18.936,4.776 C18.612,4.452 18.096,4.452 17.76,4.788 L16.98,5.568 C16.656,5.892 16.644,6.42 16.968,6.744 C17.28,7.068 17.808,7.068 18.144,6.732 Z M4.056,10.848 L2.952,10.848 C2.484,10.848 2.112,11.22 2.112,11.676 C2.112,12.132 2.472,12.504 2.952,12.504 L4.056,12.504 C4.524,12.504 4.896,12.132 4.896,11.676 C4.896,11.22 4.536,10.848 4.056,10.848 L4.056,10.848 Z M5.772,16.704 L4.992,17.484 C4.668,17.808 4.656,18.336 4.98,18.66 C5.304,18.984 5.82,18.984 6.156,18.648 L6.936,17.868 C7.26,17.544 7.272,17.016 6.948,16.692 C6.624,16.368 6.108,16.368 5.772,16.704 L5.772,16.704 Z M5.832,6.6 C6.156,6.924 6.684,6.936 7.008,6.612 C7.332,6.288 7.332,5.772 6.996,5.436 L6.216,4.656 C5.892,4.332 5.364,4.32 5.04,4.644 C4.716,4.968 4.716,5.484 5.052,5.82 L5.832,6.6 L5.832,6.6 Z M11.964,18.744 C11.508,18.744 11.136,19.104 11.136,19.584 L11.136,20.688 C11.136,21.156 11.508,21.528 11.964,21.528 C12.42,21.528 12.792,21.168 12.792,20.688 L12.792,19.584 C12.792,19.128 12.42,18.744 11.964,18.744 L11.964,18.744 Z M18.06,16.692 C17.736,16.368 17.208,16.356 16.884,16.68 C16.56,17.004 16.56,17.52 16.896,17.856 L17.676,18.636 C18,18.96 18.528,18.972 18.852,18.648 C19.176,18.324 19.176,17.808 18.84,17.472 L18.06,16.692 Z M20.964,10.932 L19.86,10.932 C19.392,10.932 19.02,11.304 19.02,11.76 C19.02,12.216 19.38,12.588 19.86,12.588 L20.964,12.588 C21.432,12.588 21.804,12.216 21.804,11.76 C21.804,11.304 21.444,10.932 20.964,10.932 Z" id="形状"></path>
            <path d="M6.3,11.724 C6.3,13.738978 7.37497788,15.6008944 9.11999997,16.6083834 C10.8650221,17.6158724 13.0149779,17.6158724 14.76,16.6083834 C16.5050221,15.6008944 17.58,13.738978 17.58,11.724 C17.58,9.70902205 16.5050221,7.84710563 14.76,6.83961665 C13.0149779,5.83212767 10.8650221,5.83212767 9.11999998,6.83961665 C7.37497789,7.84710563 6.3,9.70902205 6.3,11.724 L6.3,11.724 Z" id="路径"></path>
        </g>
    </g>
</svg>