<?xml version="1.0" encoding="UTF-8"?>
<svg width="24px" height="24px" viewBox="0 0 24 24" version="1.1" xmlns="http://www.w3.org/2000/svg" xmlns:xlink="http://www.w3.org/1999/xlink">
    <title>1.通用/2.图标/2.设计/时间</title>
    <g id="1.通用/2.图标/2.设计/时间" stroke="none" stroke-width="1" fill="none" fill-rule="evenodd">
        <g id="time-circle-fill" fill-rule="nonzero">
            <rect id="矩形" fill="#000000" opacity="0" x="0" y="0" width="24" height="24"></rect>
            <path d="M12,3 C7.02991071,3 3,7.02991071 3,12 C3,16.9700893 7.02991071,21 12,21 C16.9700893,21 21,16.9700893 21,12 C21,7.02991071 16.9700893,3 12,3 Z M15.5457589,14.7662946 L14.9712054,15.5497768 C14.9189732,15.6220982 14.8185268,15.6361607 14.7462054,15.5839286 L11.4234375,13.1611607 C11.38125,13.1310268 11.3571429,13.0828125 11.3571429,13.0305804 L11.3571429,7.5 C11.3571429,7.41160714 11.4294643,7.33928571 11.5178571,7.33928571 L12.4841518,7.33928571 C12.5725446,7.33928571 12.6448661,7.41160714 12.6448661,7.5 L12.6448661,12.4720982 L15.5095982,14.5433036 C15.5819196,14.5935268 15.5979911,14.6939732 15.5457589,14.7662946 Z" id="形状" fill="#1AAEF6"></path>
        </g>
    </g>
</svg>