<?xml version="1.0" encoding="UTF-8"?>
<svg width="24px" height="24px" viewBox="0 0 24 24" version="1.1" xmlns="http://www.w3.org/2000/svg" xmlns:xlink="http://www.w3.org/1999/xlink">
    <title>1.通用/2.图标/2.设计/user_fill</title>
    <g id="1.通用/2.图标/2.设计/user_fill" stroke="none" stroke-width="1" fill="none" fill-rule="evenodd">
        <path d="M12,12 C14.5490065,12 16.6153846,9.98528137 16.6153846,7.5 C16.6153846,5.01471863 14.5490065,3 12,3 C9.45099346,3 7.38461538,5.01471863 7.38461538,7.5 C7.38461538,9.98528137 9.45099346,12 12,12 Z M2.3,21 C2.13431458,21 2,20.8656854 2,20.7 L2,17.25 C2,15.1789322 3.67893219,13.5 5.75,13.5 L7.38461538,13.5 C7.38461538,16.4727789 9.04766955,18.9406025 11.2302903,19.4169371 L11.2307692,13.8 C11.2307692,13.6343146 11.3650838,13.5 11.5307692,13.5 L12.4692308,13.5 C12.6349162,13.5 12.7692308,13.6343146 12.7692308,13.8 L12.7697097,19.4169371 C14.9523304,18.9406025 16.6153846,16.4727789 16.6153846,13.5 L18.25,13.5 C20.3210678,13.5 22,15.1789322 22,17.25 L22,20.7 C22,20.8656854 21.8656854,21 21.7,21 L2.3,21 Z" id="形状结合" fill="#1AAEF6"></path>
    </g>
</svg>