<?xml version="1.0" encoding="UTF-8"?>
<svg width="20px" height="18px" viewBox="0 0 20 18" version="1.1" xmlns="http://www.w3.org/2000/svg" xmlns:xlink="http://www.w3.org/1999/xlink">
    <title>1.通用/2.图标/2.设计/singlechoice_unselected_line</title>
    <g id="控件" stroke="none" stroke-width="1" fill="none" fill-rule="evenodd">
        <g id="1.通用/2.图标/2.设计/singlechoice_unselected_line" transform="translate(-2.000000, -3.000000)" fill="#6589C3">
            <path d="M7.5,13.5 C7.5,16.4729769 9.12169383,18.9409313 11.2499583,19.4170322 L11.25,13.8 C11.25,13.6343146 11.3843146,13.5 11.55,13.5 L12.45,13.5 C12.6156854,13.5 12.75,13.6343146 12.75,13.8 L12.7510468,19.4168072 C14.8788167,18.9401542 16.5,16.4725089 16.5,13.5 L18,13.5 C20.0710678,13.5 21.75,15.1789322 21.75,17.25 L21.75,20.7 C21.75,20.8656854 21.6156854,21 21.45,21 L2.55,21 C2.38431458,21 2.25,20.8656854 2.25,20.7 L2.25,17.25 C2.25,15.1789322 3.92893219,13.5 6,13.5 L7.5,13.5 Z M12,3 C14.4852814,3 16.5,5.01471863 16.5,7.5 C16.5,9.98528137 14.4852814,12 12,12 C9.51471863,12 7.5,9.98528137 7.5,7.5 C7.5,5.01471863 9.51471863,3 12,3 Z" id="形状结合"></path>
        </g>
    </g>
</svg>